<svg xmlns="http://www.w3.org/2000/svg" viewBox="0 0 900 480">
  <defs>
    <linearGradient id="inputGrad9" x1="0%" y1="0%" x2="100%" y2="100%">
      <stop offset="0%" style="stop-color:#00BCD4;stop-opacity:1" />
      <stop offset="100%" style="stop-color:#00838F;stop-opacity:1" />
    </linearGradient>
    <linearGradient id="aiGrad" x1="0%" y1="0%" x2="100%" y2="100%">
      <stop offset="0%" style="stop-color:#9C27B0;stop-opacity:1" />
      <stop offset="100%" style="stop-color:#6A1B9A;stop-opacity:1" />
    </linearGradient>
    <linearGradient id="perceptionGrad9" x1="0%" y1="0%" x2="100%" y2="100%">
      <stop offset="0%" style="stop-color:#FF5722;stop-opacity:1" />
      <stop offset="100%" style="stop-color:#D84315;stop-opacity:1" />
    </linearGradient>
    <linearGradient id="controlGrad" x1="0%" y1="0%" x2="100%" y2="100%">
      <stop offset="0%" style="stop-color:#4CAF50;stop-opacity:1" />
      <stop offset="100%" style="stop-color:#2E7D32;stop-opacity:1" />
    </linearGradient>
    <marker id="e2eArrow" markerWidth="10" markerHeight="7" refX="10" refY="3.5" orient="auto">
      <polygon points="0 0, 10 3.5, 0 7" fill="#333"/>
    </marker>
  </defs>

  <!-- Title -->
  <text x="450" y="30" font-family="Arial, sans-serif" font-size="20" font-weight="bold" fill="#333" text-anchor="middle">End-to-End Autonomous Humanoid System</text>

  <!-- Human Interface Layer -->
  <rect x="30" y="60" width="200" height="160" rx="12" fill="url(#inputGrad9)"/>
  <text x="130" y="90" font-family="Arial, sans-serif" font-size="14" font-weight="bold" fill="white" text-anchor="middle">Human Interface</text>

  <rect x="45" y="105" width="170" height="35" rx="6" fill="rgba(255,255,255,0.2)"/>
  <text x="130" y="127" font-family="Arial, sans-serif" font-size="11" fill="white" text-anchor="middle">🎤 Microphone (Voice)</text>

  <rect x="45" y="150" width="170" height="35" rx="6" fill="rgba(255,255,255,0.2)"/>
  <text x="130" y="172" font-family="Arial, sans-serif" font-size="11" fill="white" text-anchor="middle">🔊 Speaker (TTS)</text>

  <!-- AI Processing Layer -->
  <rect x="260" y="60" width="380" height="160" rx="12" fill="url(#aiGrad)"/>
  <text x="450" y="90" font-family="Arial, sans-serif" font-size="14" font-weight="bold" fill="white" text-anchor="middle">AI Processing Layer</text>

  <rect x="280" y="105" width="110" height="50" rx="6" fill="rgba(255,255,255,0.2)"/>
  <text x="335" y="127" font-family="Arial, sans-serif" font-size="10" font-weight="bold" fill="white" text-anchor="middle">Whisper</text>
  <text x="335" y="143" font-family="Arial, sans-serif" font-size="9" fill="white" text-anchor="middle">Speech → Text</text>

  <rect x="400" y="105" width="110" height="50" rx="6" fill="rgba(255,255,255,0.2)"/>
  <text x="455" y="127" font-family="Arial, sans-serif" font-size="10" font-weight="bold" fill="white" text-anchor="middle">LLM Planner</text>
  <text x="455" y="143" font-family="Arial, sans-serif" font-size="9" fill="white" text-anchor="middle">Text → Plan</text>

  <rect x="520" y="105" width="110" height="50" rx="6" fill="rgba(255,255,255,0.2)"/>
  <text x="575" y="127" font-family="Arial, sans-serif" font-size="10" font-weight="bold" fill="white" text-anchor="middle">VLA Model</text>
  <text x="575" y="143" font-family="Arial, sans-serif" font-size="9" fill="white" text-anchor="middle">Vision → Action</text>

  <rect x="280" y="165" width="350" height="40" rx="6" fill="rgba(255,255,255,0.15)"/>
  <text x="455" y="190" font-family="Arial, sans-serif" font-size="10" fill="white" text-anchor="middle">Dialogue Context Manager | Safety Monitor</text>

  <!-- Output Layer -->
  <rect x="670" y="60" width="200" height="160" rx="12" fill="#E8F5E9" stroke="#4CAF50" stroke-width="2"/>
  <text x="770" y="90" font-family="Arial, sans-serif" font-size="14" font-weight="bold" fill="#2E7D32" text-anchor="middle">Output</text>

  <rect x="685" y="105" width="170" height="35" rx="6" fill="#C8E6C9"/>
  <text x="770" y="127" font-family="Arial, sans-serif" font-size="11" fill="#1B5E20" text-anchor="middle">Action Sequence</text>

  <rect x="685" y="150" width="170" height="35" rx="6" fill="#A5D6A7"/>
  <text x="770" y="172" font-family="Arial, sans-serif" font-size="11" fill="#1B5E20" text-anchor="middle">Verbal Feedback</text>

  <!-- Perception Layer -->
  <rect x="30" y="250" width="410" height="100" rx="12" fill="url(#perceptionGrad9)"/>
  <text x="235" y="280" font-family="Arial, sans-serif" font-size="14" font-weight="bold" fill="white" text-anchor="middle">Perception Layer (Isaac ROS)</text>

  <rect x="50" y="295" width="90" height="40" rx="6" fill="rgba(255,255,255,0.2)"/>
  <text x="95" y="315" font-family="Arial, sans-serif" font-size="9" font-weight="bold" fill="white" text-anchor="middle">cuVSLAM</text>
  <text x="95" y="328" font-family="Arial, sans-serif" font-size="8" fill="white" text-anchor="middle">Localization</text>

  <rect x="150" y="295" width="90" height="40" rx="6" fill="rgba(255,255,255,0.2)"/>
  <text x="195" y="315" font-family="Arial, sans-serif" font-size="9" font-weight="bold" fill="white" text-anchor="middle">Nvblox</text>
  <text x="195" y="328" font-family="Arial, sans-serif" font-size="8" fill="white" text-anchor="middle">3D Mapping</text>

  <rect x="250" y="295" width="90" height="40" rx="6" fill="rgba(255,255,255,0.2)"/>
  <text x="295" y="315" font-family="Arial, sans-serif" font-size="9" font-weight="bold" fill="white" text-anchor="middle">Detection</text>
  <text x="295" y="328" font-family="Arial, sans-serif" font-size="8" fill="white" text-anchor="middle">Objects</text>

  <rect x="350" y="295" width="80" height="40" rx="6" fill="rgba(255,255,255,0.2)"/>
  <text x="390" y="315" font-family="Arial, sans-serif" font-size="9" font-weight="bold" fill="white" text-anchor="middle">Depth</text>
  <text x="390" y="328" font-family="Arial, sans-serif" font-size="8" fill="white" text-anchor="middle">RealSense</text>

  <!-- Control Layer -->
  <rect x="460" y="250" width="410" height="100" rx="12" fill="url(#controlGrad)"/>
  <text x="665" y="280" font-family="Arial, sans-serif" font-size="14" font-weight="bold" fill="white" text-anchor="middle">Control Layer (Nav2 + MoveIt)</text>

  <rect x="480" y="295" width="90" height="40" rx="6" fill="rgba(255,255,255,0.2)"/>
  <text x="525" y="315" font-family="Arial, sans-serif" font-size="9" font-weight="bold" fill="white" text-anchor="middle">Nav2</text>
  <text x="525" y="328" font-family="Arial, sans-serif" font-size="8" fill="white" text-anchor="middle">Navigation</text>

  <rect x="580" y="295" width="90" height="40" rx="6" fill="rgba(255,255,255,0.2)"/>
  <text x="625" y="315" font-family="Arial, sans-serif" font-size="9" font-weight="bold" fill="white" text-anchor="middle">MoveIt2</text>
  <text x="625" y="328" font-family="Arial, sans-serif" font-size="8" fill="white" text-anchor="middle">Manipulation</text>

  <rect x="680" y="295" width="90" height="40" rx="6" fill="rgba(255,255,255,0.2)"/>
  <text x="725" y="315" font-family="Arial, sans-serif" font-size="9" font-weight="bold" fill="white" text-anchor="middle">Controller</text>
  <text x="725" y="328" font-family="Arial, sans-serif" font-size="8" fill="white" text-anchor="middle">Joint Cmds</text>

  <rect x="780" y="295" width="80" height="40" rx="6" fill="rgba(255,255,255,0.2)"/>
  <text x="820" y="315" font-family="Arial, sans-serif" font-size="9" font-weight="bold" fill="white" text-anchor="middle">Safety</text>
  <text x="820" y="328" font-family="Arial, sans-serif" font-size="8" fill="white" text-anchor="middle">Monitor</text>

  <!-- Hardware Layer -->
  <rect x="30" y="380" width="840" height="80" rx="12" fill="#263238"/>
  <text x="450" y="410" font-family="Arial, sans-serif" font-size="14" font-weight="bold" fill="white" text-anchor="middle">Hardware Layer</text>

  <rect x="60" y="425" width="120" height="25" rx="4" fill="#455A64"/>
  <text x="120" y="442" font-family="Arial, sans-serif" font-size="10" fill="white" text-anchor="middle">RGB Cameras</text>

  <rect x="200" y="425" width="120" height="25" rx="4" fill="#455A64"/>
  <text x="260" y="442" font-family="Arial, sans-serif" font-size="10" fill="white" text-anchor="middle">Depth Sensors</text>

  <rect x="340" y="425" width="100" height="25" rx="4" fill="#455A64"/>
  <text x="390" y="442" font-family="Arial, sans-serif" font-size="10" fill="white" text-anchor="middle">IMU</text>

  <rect x="460" y="425" width="120" height="25" rx="4" fill="#455A64"/>
  <text x="520" y="442" font-family="Arial, sans-serif" font-size="10" fill="white" text-anchor="middle">Joint Motors</text>

  <rect x="600" y="425" width="100" height="25" rx="4" fill="#455A64"/>
  <text x="650" y="442" font-family="Arial, sans-serif" font-size="10" fill="white" text-anchor="middle">Gripper</text>

  <rect x="720" y="425" width="130" height="25" rx="4" fill="#455A64"/>
  <text x="785" y="442" font-family="Arial, sans-serif" font-size="10" fill="white" text-anchor="middle">Jetson AGX Orin</text>

  <!-- Connection arrows -->
  <line x1="230" y1="140" x2="260" y2="140" stroke="#333" stroke-width="2" marker-end="url(#e2eArrow)"/>
  <line x1="640" y1="140" x2="670" y2="140" stroke="#333" stroke-width="2" marker-end="url(#e2eArrow)"/>

  <line x1="450" y1="220" x2="450" y2="250" stroke="#333" stroke-width="2" marker-end="url(#e2eArrow)"/>
  <line x1="235" y1="350" x2="235" y2="380" stroke="#333" stroke-width="2" marker-end="url(#e2eArrow)"/>
  <line x1="665" y1="350" x2="665" y2="380" stroke="#333" stroke-width="2" marker-end="url(#e2eArrow)"/>
</svg>